<?xml version="1.0" encoding="UTF-8"?>
<!DOCTYPE svg PUBLIC "-//W3C//DTD SVG 1.1//EN" "http://www.w3.org/Graphics/SVG/1.1/DTD/svg11.dtd">
<svg xmlns="http://www.w3.org/2000/svg" version="1.1" width="500px" height="500px" style="shape-rendering:geometricPrecision; text-rendering:geometricPrecision; image-rendering:optimizeQuality; fill-rule:evenodd; clip-rule:evenodd" xmlns:xlink="http://www.w3.org/1999/xlink">
<g><path style="opacity:1" fill="#000000" d="M -0.5,-0.5 C 166.167,-0.5 332.833,-0.5 499.5,-0.5C 499.5,166.167 499.5,332.833 499.5,499.5C 332.833,499.5 166.167,499.5 -0.5,499.5C -0.5,332.833 -0.5,166.167 -0.5,-0.5 Z"/></g>
<g><path style="opacity:1" fill="#fe3030" d="M 247.5,34.5 C 272.432,52.7584 297.098,71.425 321.5,90.5C 321.833,91.3333 322.167,92.1667 322.5,93C 313.789,122.422 304.789,151.756 295.5,181C 295.833,181.5 296.167,182 296.5,182.5C 320.575,163.749 344.909,145.416 369.5,127.5C 394.45,145.941 419.283,164.608 444,183.5C 434.762,214.39 425.595,245.39 416.5,276.5C 385.167,276.5 353.833,276.5 322.5,276.5C 313.863,245.782 304.529,215.282 294.5,185C 263.835,184.5 233.168,184.333 202.5,184.5C 193.475,215.27 184.141,245.937 174.5,276.5C 143.493,276.833 112.493,276.5 81.5,275.5C 71.3925,245.02 62.2258,214.353 54,183.5C 78.1459,164.099 102.813,145.433 128,127.5C 152.161,145.251 176.161,163.251 200,181.5C 191.42,152.034 182.587,122.534 173.5,93C 174.101,91.395 175.101,90.0616 176.5,89C 200.596,71.2977 224.262,53.131 247.5,34.5 Z"/></g>
<g><path style="opacity:1" fill="#fe3030" d="M 172.5,277.5 C 173.873,277.343 175.207,277.51 176.5,278C 200.474,296.985 224.807,315.485 249.5,333.5C 274.193,315.485 298.526,296.985 322.5,278C 323.833,277.333 325.167,277.333 326.5,278C 350.872,296.845 375.205,315.678 399.5,334.5C 389.555,364.999 380.222,395.666 371.5,426.5C 340.167,426.5 308.833,426.5 277.5,426.5C 268.94,395.927 259.607,365.594 249.5,335.5C 239.393,365.594 230.06,395.927 221.5,426.5C 190.167,426.5 158.833,426.5 127.5,426.5C 118.866,395.8 109.533,365.3 99.5,335C 123.807,315.841 148.14,296.674 172.5,277.5 Z"/></g>
</svg>
